<?xml version="1.0" standalone="no"?>
<!DOCTYPE svg PUBLIC "-//W3C//DTD SVG 20010904//EN"
 "http://www.w3.org/TR/2001/REC-SVG-20010904/DTD/svg10.dtd">
<svg version="1.0" xmlns="http://www.w3.org/2000/svg"
 width="512.000000pt" height="512.000000pt" viewBox="0 0 512.000000 512.000000"
 preserveAspectRatio="xMidYMid meet">
<metadata>
Created by potrace 1.15, written by Peter Selinger 2001-2017
</metadata>
<g transform="translate(0.000000,512.000000) scale(0.100000,-0.100000)"
fill="#000000" stroke="none">
<path d="M2200 3400 l0 -120 210 0 210 0 0 -815 0 -815 220 0 220 0 0 815 0
815 213 2 212 3 0 115 0 115 -642 3 -643 2 0 -120z"/>
<path d="M3790 3347 c-80 -41 -48 -167 42 -167 40 0 88 48 88 89 0 62 -75 107
-130 78z"/>
<path d="M3444 3132 c-24 -12 -55 -39 -74 -66 l-34 -46 -30 57 c-27 50 -35 58
-63 61 l-33 3 0 -281 0 -281 83 3 82 3 5 195 c6 199 12 232 50 270 42 42 113
8 145 -72 l16 -42 45 70 c24 38 43 76 41 83 -8 49 -160 77 -233 43z"/>
<path d="M4283 3131 c-24 -11 -54 -37 -70 -60 -15 -22 -31 -40 -35 -41 -3 0
-20 25 -37 55 -27 47 -35 55 -61 55 l-30 0 0 -410 0 -411 78 3 77 3 3 153 c2
139 9 172 28 141 12 -20 88 -49 130 -49 59 0 134 25 176 60 110 91 126 303 32
427 -61 81 -201 116 -291 74z m129 -88 c35 -32 50 -75 56 -158 8 -138 -33
-221 -115 -232 -82 -11 -139 80 -137 222 1 94 21 147 68 177 37 23 97 19 128
-9z"/>
<path d="M3750 2860 l0 -280 80 0 80 0 0 280 0 280 -80 0 -80 0 0 -280z"/>
<path d="M945 3089 c-228 -17 -295 -34 -295 -77 0 -11 -17 -25 -42 -37 -29
-14 -49 -32 -63 -58 -11 -21 -28 -43 -37 -48 -15 -8 -18 -24 -18 -87 0 -88 8
-102 57 -102 l33 0 0 93 c0 57 -4 97 -11 104 -9 9 -8 18 5 38 17 26 61 53 71
43 9 -9 -16 -1021 -25 -1039 -14 -26 -12 -125 3 -137 6 -6 26 -12 42 -14 l30
-3 3 -82 3 -83 69 0 69 0 3 83 3 82 360 0 360 0 5 -80 5 -80 70 0 70 0 5 80 5
80 30 3 c17 2 36 11 43 20 15 20 16 114 1 129 -12 12 -36 1029 -25 1040 12 12
55 -17 71 -47 9 -17 11 -30 5 -30 -6 0 -10 -38 -10 -100 l0 -100 29 0 c47 0
61 22 61 98 0 53 -4 70 -21 88 -11 12 -28 37 -38 55 -11 20 -35 42 -57 53 -23
11 -45 31 -54 50 -14 28 -21 32 -86 43 -179 29 -498 39 -729 22z m625 -39 c52
-6 110 -13 128 -16 l32 -6 0 -96 c0 -75 -3 -93 -12 -84 -9 9 -77 12 -245 12
-149 0 -233 4 -233 10 0 6 -16 10 -35 10 -19 0 -35 -4 -35 -10 0 -6 -83 -10
-229 -10 -145 0 -232 -4 -236 -10 -4 -6 -11 -8 -16 -5 -11 8 -12 172 0 179 14
9 141 26 266 36 137 10 474 5 615 -10z m138 -247 c2 -16 -2 -23 -13 -23 -9 0
-133 -119 -276 -264 l-260 -265 -57 -11 c-31 -6 -70 -15 -87 -20 -28 -9 -27
-9 10 -6 22 3 55 8 74 12 25 5 32 4 27 -4 -5 -9 41 -12 180 -12 l188 0 36 33
35 32 -29 -32 -30 -33 97 0 c74 0 97 -3 97 -13 0 -15 -34 -49 -67 -66 -28 -14
-810 -16 -848 -1 -26 10 -75 56 -75 71 0 5 23 9 50 9 l50 0 280 283 280 282
-107 3 -107 3 -201 -201 c-110 -110 -204 -200 -208 -200 -4 0 -7 24 -7 52 l0
53 147 147 148 148 -163 0 -162 0 0 25 0 25 498 -2 497 -3 3 -22z m-768 -60
c0 -10 -183 -193 -192 -193 -5 0 -8 45 -8 100 l0 100 100 0 c55 0 100 -3 100
-7z m38 -310 c-160 -160 -197 -193 -218 -191 -19 2 -26 10 -28 32 -3 26 19 52
215 248 l218 218 3 -57 3 -57 -193 -193z m702 145 l0 -133 -104 -102 -104
-103 -90 0 c-95 0 -142 11 -142 32 0 13 419 438 432 438 5 0 8 -60 8 -132z
m70 -464 l0 -84 -68 0 c-74 0 -107 -15 -122 -56 -11 -27 -39 -33 -36 -8 2 25
-24 29 -31 5 -9 -34 -33 -26 -33 12 0 52 -7 56 -115 59 -92 3 -100 5 -100 23
0 19 7 20 180 20 99 0 182 2 185 5 3 3 23 14 45 25 24 12 48 34 60 57 10 20
23 34 27 32 4 -3 8 -43 8 -90z m-1060 77 c0 -19 51 -69 87 -87 33 -16 60 -18
216 -15 l177 3 0 -26 0 -26 -100 0 c-109 0 -112 -1 -114 -61 -1 -20 -6 -29
-17 -29 -9 0 -16 7 -15 16 2 25 -24 29 -31 5 -7 -26 -33 -28 -33 -3 0 37 -37
56 -116 60 l-74 4 0 84 c0 49 4 84 10 84 6 0 10 -4 10 -9z m765 -281 c3 -5 26
-10 51 -10 24 0 44 -4 44 -10 0 -6 -57 -10 -150 -10 -93 0 -150 4 -150 10 0 6
-18 10 -40 10 -22 0 -40 -4 -40 -10 0 -6 -56 -10 -149 -10 -89 0 -152 4 -156
10 -4 6 13 10 44 10 27 0 53 5 56 10 4 6 97 10 245 10 148 0 241 -4 245 -10z"/>
<path d="M884 3019 c-45 -5 -99 -12 -120 -17 -37 -7 -39 -10 -42 -50 l-3 -42
225 0 226 0 0 60 0 60 -102 -1 c-57 -1 -139 -5 -184 -10z"/>
<path d="M1245 3018 c-4 -9 -5 -35 -3 -59 l3 -44 225 0 225 0 0 40 0 40 -75
12 c-41 7 -141 15 -222 19 -128 6 -148 5 -153 -8z"/>
<path d="M2118 2481 c-103 -41 -172 -128 -184 -238 -8 -64 20 -152 89 -283 71
-134 180 -310 192 -310 20 1 187 285 243 413 30 69 36 94 36 157 1 65 -3 82
-29 129 -69 125 -219 182 -347 132z m184 -179 c59 -58 43 -168 -27 -200 -36
-16 -90 -15 -125 3 -63 33 -80 129 -33 185 34 41 58 51 112 46 32 -3 51 -12
73 -34z"/>
<path d="M3358 2207 c-73 -28 -126 -66 -157 -116 -102 -158 -33 -375 138 -436
24 -8 76 -15 115 -15 87 0 178 38 220 92 34 45 33 54 -6 67 -29 10 -34 9 -50
-11 -10 -13 -18 -26 -18 -30 0 -19 -71 -48 -116 -48 -62 0 -107 27 -134 79
-31 62 -28 71 23 59 56 -13 183 -4 232 16 74 31 115 88 115 161 0 39 -27 100
-56 127 -59 53 -230 83 -306 55z m182 -86 c14 -10 31 -35 38 -56 29 -86 -19
-155 -112 -163 -30 -2 -76 -1 -101 2 -41 7 -45 10 -45 35 0 42 27 125 52 156
43 55 114 66 168 26z"/>
</g>
</svg>
